HIERARCHY
ROOT joint_Root
{
  OFFSET 0 0 0
  CHANNELS 6 Xposition Yposition Zposition Zrotation Xrotation Yrotation
  JOINT Hips
  {
    OFFSET 0 93.9241 -3
    CHANNELS 6 Xposition Yposition Zposition Zrotation Xrotation Yrotation
    JOINT Spine
    {
      OFFSET 15.7357 0 0
      CHANNELS 6 Xposition Yposition Zposition Zrotation Xrotation Yrotation
      JOINT Chest
      {
        OFFSET 8.98455 -0.406207 0
        CHANNELS 6 Xposition Yposition Zposition Zrotation Xrotation Yrotation
        JOINT Neck
        {
          OFFSET 16.3773 0 0
          CHANNELS 6 Xposition Yposition Zposition Zrotation Xrotation Yrotation
          JOINT Head
          {
            OFFSET 6.45672 0 0
            CHANNELS 6 Xposition Yposition Zposition Zrotation Xrotation Yrotation
            End Site
            {
              OFFSET 0 0 0
            }
          }
        }
        JOINT Shoulder_L
        {
          OFFSET 12.9942 -0.242716 4.98039
          CHANNELS 6 Xposition Yposition Zposition Zrotation Xrotation Yrotation
          JOINT UpperArm_L
          {
            OFFSET 5.34809 0 0
            CHANNELS 6 Xposition Yposition Zposition Zrotation Xrotation Yrotation
            JOINT LowerArm_L
            {
              OFFSET 24.3286 1.87007e-05 0
              CHANNELS 6 Xposition Yposition Zposition Zrotation Xrotation Yrotation
              JOINT Hand_L
              {
                OFFSET 22.2916 0 0
                CHANNELS 6 Xposition Yposition Zposition Zrotation Xrotation Yrotation
                End Site
                {
                  OFFSET 0 0 0
                }
              }
            }
          }
        }
        JOINT Shoulder_R
        {
          OFFSET 12.9945 -0.242716 -4.98039
          CHANNELS 6 Xposition Yposition Zposition Zrotation Xrotation Yrotation
          JOINT UpperArm_R
          {
            OFFSET -5.34813 0 0
            CHANNELS 6 Xposition Yposition Zposition Zrotation Xrotation Yrotation
            JOINT LowerArm_R
            {
              OFFSET -24.3289 0.000322201 0
              CHANNELS 6 Xposition Yposition Zposition Zrotation Xrotation Yrotation
              JOINT Hand_R
              {
                OFFSET -22.2915 -0.000108084 0
                CHANNELS 6 Xposition Yposition Zposition Zrotation Xrotation Yrotation
                End Site
                {
                  OFFSET 0 0 0
                }
              }
            }
          }
        }
      }
    }
    JOINT UpperLeg_L
    {
      OFFSET -2.19248 -6.46944 0
      CHANNELS 6 Xposition Yposition Zposition Zrotation Xrotation Yrotation
      JOINT LowerLeg_L
      {
        OFFSET 39.0811 0 -1.23785e-05
        CHANNELS 6 Xposition Yposition Zposition Zrotation Xrotation Yrotation
        JOINT Foot_L
        {
          OFFSET 40.9854 0 -1.26872e-05
          CHANNELS 6 Xposition Yposition Zposition Zrotation Xrotation Yrotation
          JOINT Toes_L
          {
            OFFSET 11.7543 0 0
            CHANNELS 6 Xposition Yposition Zposition Zrotation Xrotation Yrotation
            End Site
            {
              OFFSET 0 0 0
            }
          }
        }
      }
    }
    JOINT UpperLeg_R
    {
      OFFSET -2.19251 6.46944 0
      CHANNELS 6 Xposition Yposition Zposition Zrotation Xrotation Yrotation
      JOINT LowerLeg_R
      {
        OFFSET -39.0811 -0.00228153 -0.0401928
        CHANNELS 6 Xposition Yposition Zposition Zrotation Xrotation Yrotation
        JOINT Foot_R
        {
          OFFSET -40.9854 0 0
          CHANNELS 6 Xposition Yposition Zposition Zrotation Xrotation Yrotation
          JOINT Toes_R
          {
            OFFSET -11.7543 0 0
            CHANNELS 6 Xposition Yposition Zposition Zrotation Xrotation Yrotation
            End Site
            {
              OFFSET 0 0 0
            }
          }
        }
      }
    }
  }
}
MOTION
Frames:	5
Frame Time:	0.0333333
0 0 0 0 0 -0 261.75 90.1127 -3.67834 78.416 -59.4661 -3.97536 15.7357 5.1072e-06 -5.51765e-07 139.513 86.7857 -140.078 8.98455 -0.406207 -4.3199e-07 -3.57409 4.94247 -0.977359 16.3773 -1.3905e-06 -6.99897e-07 -8.37392 12.8373 -3.214 6.45672 -1.25837e-06 -1.02172e-07 -8.42092 14.617 -4.17179 12.9942 -0.242716 4.98039 -90.5579 2.47467 -92.2925 5.34809 -7.22636e-06 -6.2814e-07 -67.0026 -4.03546 10.439 24.3286 1.87007e-05 4.90208e-06 2.17157 10.4405 -11.8186 22.2916 -9.88446e-07 4.63217e-06 7.38011 5.00776 7.1479 12.9945 -0.242716 -4.98039 89.8204 1.7016 -98.9748 -5.34813 -1.25947e-06 -3.79883e-06 -72.1541 1.81517 2.53447 -24.3289 0.000322201 -8.65921e-06 3.60187 12.5253 -16.1902 -22.2915 -0.000108084 -4.47941e-06 12.3027 5.34426 -1.20385 -2.19248 -6.46944 -1.22533e-07 -166.728 -0.728267 -17.899 39.0811 -6.73843e-06 -1.23785e-05 -0.0762639 0.0319766 65.1545 40.9854 -6.48686e-06 -1.26872e-05 0.928232 -7.21878 -53.6237 11.7543 -2.30145e-07 3.05095e-06 0.464435 -0.565774 -21.9119 -2.19251 6.46944 -1.45247e-06 -165.354 10.3191 175.989 -39.0811 -0.00228153 -0.0401928 0.237059 -0.447478 24.8552 -40.9854 7.72618e-06 5.99936e-06 7.92982 -9.62337 -66.7798 -11.7543 -5.6619e-06 -5.58687e-06 -0.0345824 0.0242319 -16.5734 
0 0 0 0 0 -0 261.021 90.3154 -3.46483 79.6354 -60.11 -3.39085 15.7357 5.1072e-06 -5.51764e-07 147.174 86.1744 -147.953 8.98455 -0.406207 -4.3199e-07 -3.58484 6.50304 -1.35683 16.3773 -1.3905e-06 -6.99897e-07 -8.70683 13.2665 -3.07098 6.45672 -1.25837e-06 -1.02172e-07 -7.95173 13.9597 -4.65121 12.9942 -0.242716 4.98039 -90.6963 2.7871 -90.9699 5.34809 -7.22636e-06 -6.2814e-07 -68.0942 -3.83738 14.582 24.3286 1.87007e-05 4.90208e-06 2.23502 9.48261 -13.3281 22.2916 -9.88446e-07 4.63217e-06 4.82861 5.05742 6.06705 12.9945 -0.242716 -4.98039 89.8926 1.21385 -99.944 -5.34813 -1.25947e-06 -3.79883e-06 -71.8724 2.55458 0.468169 -24.3289 0.000322201 -8.65921e-06 3.75478 12.7533 -16.5608 -22.2915 -0.000108084 -4.47941e-06 11.4339 5.32132 -0.53272 -2.19248 -6.46944 -1.22533e-07 -169.009 0.719714 -21.363 39.0811 -6.73843e-06 -1.23785e-05 -0.136184 0.0710239 60.9232 40.9854 -6.48686e-06 -1.26872e-05 1.51497 -10.3295 -55.8906 11.7543 -2.30145e-07 3.05095e-06 0.416292 -0.50191 -21.3293 -2.19251 6.46944 -1.45247e-06 -166.155 11.1418 176.848 -39.0811 -0.00228153 -0.0401928 0.202182 -0.400936 23.6051 -40.9854 7.72618e-06 5.99936e-06 8.26606 -8.18936 -66.8708 -11.7543 -5.6619e-06 -5.58687e-06 -0.0160829 0.011344 -16.5737 
0 0 0 0 0 -0 260.379 90.5033 -3.23406 80.6654 -60.825 -2.93587 15.7357 5.1072e-06 -5.51765e-07 151.776 85.547 -152.697 8.98455 -0.406207 -4.3199e-07 -3.50594 7.93336 -1.60165 16.3773 -1.3905e-06 -6.99897e-07 -8.90371 13.8624 -3.0164 6.45672 -1.25837e-06 -1.02172e-07 -7.84396 13.4317 -5.03348 12.9942 -0.242716 4.98039 -90.9066 3.25104 -89.4104 5.34809 -7.22636e-06 -6.2814e-07 -68.4246 -4.81576 18.945 24.3286 1.87007e-05 4.90208e-06 2.38524 8.73531 -15.3376 22.2916 -9.88446e-07 4.63217e-06 2.94391 5.10428 5.0086 12.9945 -0.242716 -4.98039 89.9447 0.768241 -100.889 -5.34813 -1.25947e-06 -3.79883e-06 -71.1843 3.70102 -1.64006 -24.3289 0.000322201 -8.65921e-06 4.06453 13.1761 -17.3182 -22.2915 -0.000108084 -4.47941e-06 11.2229 5.30116 0.0397705 -2.19248 -6.46944 -1.22533e-07 -170.895 2.23772 -23.6585 39.0811 -6.73843e-06 -1.23785e-05 -0.144634 0.0985601 54.0756 40.9854 -6.48686e-06 -1.26872e-05 1.37229 -12.6172 -57.247 11.7543 -2.30145e-07 3.05095e-06 0.41045 -0.494256 -21.2597 -2.19251 6.46944 -1.45247e-06 -166.729 10.8001 177.636 -39.0811 -0.00228153 -0.0401928 0.169 -0.350795 22.3903 -40.9854 7.72618e-06 5.99936e-06 8.34683 -7.84247 -66.7582 -11.7543 -5.6619e-06 -5.58687e-06 -0.0646677 0.0460534 -16.5731 
0 0 0 0 0 -0 259.782 90.6476 -2.99414 81.3756 -61.4365 -2.84926 15.7357 5.1072e-06 -5.51764e-07 155.334 85.0019 -156.35 8.98455 -0.406207 -4.3199e-07 -3.53382 9.17936 -1.75205 16.3773 -1.3905e-06 -6.99897e-07 -9.08514 14.4244 -3.09494 6.45672 -1.25837e-06 -1.02172e-07 -7.77099 13.0448 -5.08474 12.9942 -0.242716 4.98039 -91.1228 3.64412 -87.8635 5.34809 -7.22636e-06 -6.2814e-07 -67.519 -7.29481 23.5494 24.3286 1.87007e-05 4.90208e-06 2.87699 9.14093 -17.553 22.2916 -9.88446e-07 4.63217e-06 1.10956 5.13854 4.21197 12.9945 -0.242716 -4.98039 89.9732 0.444526 -101.555 -5.34813 -1.25947e-06 -3.79883e-06 -70.2022 4.89435 -3.80001 -24.3289 0.000322201 -8.65921e-06 4.3338 13.4048 -18.1061 -22.2915 -0.000108084 -4.47941e-06 11.4692 5.31174 -0.260182 -2.19248 -6.46944 -1.22533e-07 -172.298 3.77168 -24.9893 39.0811 -6.73843e-06 -1.23785e-05 -0.116918 0.107982 45.0718 40.9854 -6.48686e-06 -1.26872e-05 0.870298 -13.3779 -57.0622 11.7543 -2.30144e-07 3.05095e-06 0.42864 -0.518186 -21.4785 -2.19251 6.46944 -1.45247e-06 -167.068 10.3012 178.214 -39.0811 -0.00228153 -0.0401928 0.143364 -0.311073 21.2696 -40.9854 7.72618e-06 5.99936e-06 8.39601 -7.68392 -66.6258 -11.7543 -5.6619e-06 -5.58687e-06 -0.0695962 0.049888 -16.5728 
0 0 0 0 0 -0 259.163 90.7224 -2.75544 81.6121 -62.0254 -3.37681 15.7357 5.1072e-06 -5.51765e-07 158.785 84.5189 -159.82 8.98455 -0.406207 -4.3199e-07 -3.73465 10.317 -1.73853 16.3773 -1.3905e-06 -6.99897e-07 -9.27512 15.0395 -3.22482 6.45672 -1.25837e-06 -1.02172e-07 -7.61243 12.7482 -5.23235 12.9942 -0.242716 4.98039 -91.304 3.85692 -86.3043 5.34809 -7.22636e-06 -6.2814e-07 -65.6233 -9.8162 27.6511 24.3286 1.87007e-05 4.90208e-06 3.10492 9.19946 -18.7416 22.2916 -9.88446e-07 4.63217e-06 -0.144694 5.15073 3.92506 12.9945 -0.242716 -4.98039 89.9909 0.170674 -101.964 -5.34813 -1.25947e-06 -3.79883e-06 -69.1222 5.73688 -5.9469 -24.3289 0.000322201 -8.65921e-06 4.82362 13.928 -19.3235 -22.2915 -0.000108084 -4.47941e-06 11.82 5.30369 -0.0317199 -2.19248 -6.46944 -1.22533e-07 -173.343 4.82909 -25.4593 39.0811 -6.73843e-06 -1.23785e-05 -0.0774673 0.0988226 34.8957 40.9854 -6.48686e-06 -1.26872e-05 0.528687 -12.2812 -57.2738 11.7543 -2.30145e-07 3.05095e-06 0.427692 -0.516928 -21.467 -2.19251 6.46944 -1.45247e-06 -167.129 9.59024 178.474 -39.0811 -0.00228153 -0.0401928 0.117141 -0.259357 20.4065 -40.9854 7.72618e-06 5.99936e-06 8.39582 -7.68443 -66.61 -11.7543 -5.6619e-06 -5.58687e-06 -0.0661695 0.0477786 -16.5729 
